# Blender 3.3.0
# www.blender.org
mtllib head.mtl
o Plane.002
v -0.450489 -0.723774 -0.986336
v 0.450489 -0.723774 -0.986336
v -0.450489 -0.087841 -0.986336
v 0.450489 -0.087841 -0.986336
v -0.614621 -0.273285 -0.986336
v 0.000000 -0.887906 -0.986336
v 0.614621 -0.273285 -0.986336
v 0.000000 0.076291 -0.986336
v 0.000000 -0.273285 -0.986336
v -0.671875 0.671875 1.000000
v -0.916667 -0.000000 1.000000
v -0.671875 -0.671875 1.000000
v 0.000000 -0.916667 1.000000
v 0.671875 -0.671875 1.000000
v 0.916667 -0.000000 1.000000
v 0.671875 0.671875 1.000000
v 0.000000 0.916667 1.000000
v 0.000000 -0.000000 1.000000
v 0.502204 -0.707168 -0.274121
v 0.732266 -0.618398 0.369771
v 0.000000 -0.907966 0.356107
v 0.000000 -0.899251 -0.278676
v -0.502204 -0.707168 -0.274121
v -0.732266 -0.618398 0.369771
v -0.999061 -0.000000 0.333333
v -0.685177 -0.204964 -0.274121
v 0.000000 0.186323 -0.274121
v 0.000000 0.999061 0.333333
v 0.732266 0.732266 0.333333
v 0.502204 0.003350 -0.274121
v 0.685177 -0.204964 -0.274121
v 0.999061 -0.000000 0.333333
v -0.732266 0.732266 0.333333
v -0.502204 0.003350 -0.274121
vn -0.0000 -0.0000 -1.0000
vn -0.0000 -0.0000 1.0000
vn 0.3423 -0.9395 -0.0127
vn -0.9147 -0.3880 0.1131
vn 0.3400 0.9333 0.1153
vn 0.9378 -0.3417 0.0609
vn -0.3681 -0.9288 -0.0435
vn -0.9333 0.3400 0.1153
vn -0.3400 0.9333 0.1153
vn 0.9333 0.3400 0.1153
vn 0.7418 0.6566 -0.1365
vn 0.6412 0.5632 -0.5213
vn -0.3388 0.9298 -0.1437
vn -0.2131 0.5849 -0.7826
vn -0.7442 0.6536 -0.1377
vn -0.7457 0.2717 -0.6084
vn -0.3573 -0.9340 -0.0042
vn -0.3678 -0.9299 -0.0032
vn 0.9379 -0.3417 -0.0601
vn 0.9028 -0.3289 -0.2772
vn 0.3388 0.9298 -0.1437
vn 0.2131 0.5849 -0.7826
vn -0.9379 -0.3417 -0.0601
vn -0.8647 -0.3916 -0.3147
vn 0.3423 -0.9395 -0.0151
vn 0.3573 -0.9339 -0.0128
vn 0.3681 -0.9288 -0.0435
vn -0.9378 -0.3417 0.0609
vn 0.9147 -0.3880 0.1131
vn -0.3423 -0.9395 -0.0127
vn 0.7442 0.6536 -0.1377
vn 0.7457 0.2717 -0.6084
vn -0.7418 0.6566 -0.1365
vn -0.6412 0.5632 -0.5213
vn -0.3423 -0.9395 -0.0151
vn -0.3573 -0.9339 -0.0128
vn 0.8647 -0.3916 -0.3147
vn -0.9028 -0.3289 -0.2772
vn 0.3573 -0.9340 -0.0042
vn 0.3678 -0.9299 -0.0032
vt 0.000000 0.000000
vt 1.000000 0.000000
vt 0.000000 1.000000
vt 1.000000 1.000000
vt 0.000000 0.500000
vt 0.500000 0.000000
vt 1.000000 0.500000
vt 0.500000 1.000000
vt 0.500000 0.500000
vt 0.000000 1.000000
vt 0.000000 0.500000
vt 0.000000 0.000000
vt 0.500000 0.000000
vt 1.000000 0.000000
vt 1.000000 0.500000
vt 1.000000 1.000000
vt 0.500000 1.000000
vt 0.500000 0.500000
vt 1.000000 0.000000
vt 1.000000 0.000000
vt 0.500000 0.000000
vt 0.500000 0.000000
vt 0.000000 0.000000
vt 0.000000 0.000000
vt 0.000000 0.500000
vt 0.000000 0.500000
vt 0.500000 1.000000
vt 0.500000 1.000000
vt 1.000000 1.000000
vt 1.000000 1.000000
vt 1.000000 0.500000
vt 1.000000 0.500000
vt 0.000000 1.000000
vt 0.000000 1.000000
s 0
usemtl Material
f 1/1/1 9/9/1 6/6/1
f 9/9/1 2/2/1 6/6/1
f 9/9/1 4/4/1 7/7/1
f 3/3/1 9/9/1 5/5/1
f 12/12/2 18/18/2 11/11/2
f 14/14/2 18/18/2 13/13/2
f 18/18/2 16/16/2 17/17/2
f 18/18/2 10/10/2 11/11/2
f 21/21/3 14/14/3 13/13/3
f 24/24/4 11/11/4 25/25/4
f 28/28/5 16/16/5 29/29/5
f 20/20/6 15/15/6 14/14/6
f 21/21/7 12/12/7 24/24/7
f 25/25/8 10/10/8 33/33/8
f 28/28/9 10/10/9 17/17/9
f 32/32/10 16/16/10 15/15/10
f 4/4/11 31/31/11 7/7/11
f 30/30/12 32/32/12 31/31/12
f 8/8/13 34/34/13 27/27/13
f 27/27/14 33/33/14 28/28/14
f 3/3/15 26/26/15 34/34/15
f 34/34/16 25/25/16 33/33/16
f 1/1/17 22/22/17 23/23/17
f 23/23/18 21/21/18 24/24/18
f 7/7/19 19/19/19 2/2/19
f 31/31/20 20/20/20 19/19/20
f 8/8/21 30/30/21 4/4/21
f 27/27/22 29/29/22 30/30/22
f 5/5/23 23/23/23 26/26/23
f 26/26/24 24/24/24 25/25/24
f 2/2/25 22/22/25 6/6/25
f 19/19/26 21/21/26 22/22/26
f 1/1/1 5/5/1 9/9/1
f 9/9/1 7/7/1 2/2/1
f 9/9/1 8/8/1 4/4/1
f 3/3/1 8/8/1 9/9/1
f 12/12/2 13/13/2 18/18/2
f 14/14/2 15/15/2 18/18/2
f 18/18/2 15/15/2 16/16/2
f 18/18/2 17/17/2 10/10/2
f 21/21/27 20/20/27 14/14/27
f 24/24/28 12/12/28 11/11/28
f 28/28/5 17/17/5 16/16/5
f 20/20/29 32/32/29 15/15/29
f 21/21/30 13/13/30 12/12/30
f 25/25/8 11/11/8 10/10/8
f 28/28/9 33/33/9 10/10/9
f 32/32/10 29/29/10 16/16/10
f 4/4/31 30/30/31 31/31/31
f 30/30/32 29/29/32 32/32/32
f 8/8/13 3/3/13 34/34/13
f 27/27/14 34/34/14 33/33/14
f 3/3/33 5/5/33 26/26/33
f 34/34/34 26/26/34 25/25/34
f 1/1/35 6/6/35 22/22/35
f 23/23/36 22/22/36 21/21/36
f 7/7/19 31/31/19 19/19/19
f 31/31/37 32/32/37 20/20/37
f 8/8/21 27/27/21 30/30/21
f 27/27/22 28/28/22 29/29/22
f 5/5/23 1/1/23 23/23/23
f 26/26/38 23/23/38 24/24/38
f 2/2/39 19/19/39 22/22/39
f 19/19/40 20/20/40 21/21/40
